<svg width="438" height="438" viewBox="0 0 438 438" fill="none" xmlns="http://www.w3.org/2000/svg">
<rect width="438" height="438" rx="96" fill="#65007E"/>
<path d="M194.5 328.9C178.6 327.3 163.6 322.4 149.9 314.4C141.3 309.4 138.5 306.8 139.3 304.5C140.1 302.6 149.3 296.7 157.6 292.8C166.8 288.5 172.3 288.3 185.5 291.5C195.2 293.9 197.9 294.2 208.5 293.8C218.1 293.4 222.1 292.8 228.5 290.6C258.9 280.3 278.7 254.5 280.7 222.7C281.4 212 281.6 211.8 299.2 200.9C314.7 191.3 325.5 185.3 346.1 175C360.5 167.7 381.5 156.3 387.8 152.2C392.1 149.4 389.2 149.9 379.4 153.6C346.9 165.7 315.9 181.6 219 235.5C152.2 272.6 142.7 277.3 106.1 291.4C61.9 308.4 31 315 24.9 308.9C20.2 304.2 25.4 295.8 46.2 274.3C76.7 242.7 80.9 238.4 87.9 230.4L95 222.2V215.4C95 201.3 99.3 184.3 106.7 169.6C123.3 136.3 153.8 114.6 191.4 109.3C201.5 107.9 205 107.8 214.9 108.8C228.5 110.1 241.1 113.5 252.6 118.9C262.3 123.5 269.6 128.3 281 137.9C285.7 141.8 293.1 146.8 297.5 149C309.4 154.9 314.6 154.6 354 145.6C380.7 139.5 392.3 137.8 403.7 138.2C412.7 138.5 414.2 138.8 416.1 140.7C418.3 142.8 418.3 142.9 416.5 145.6C415.5 147.1 413.5 149.5 412.1 150.8C408.3 154.4 392 166.6 381 174.1C361.3 187.6 346.1 198.7 335 207.6C315.7 223.2 316.3 222.5 315.5 230C312.1 263 293.5 293.3 265.5 311.6C250.9 321.1 232.8 327.5 217.5 328.5C213.1 328.8 207.9 329.2 206 329.4C204.1 329.6 198.9 329.3 194.5 328.9ZM157.6 249C171.7 245.7 187.5 238.5 214 223.7C234.3 212.3 270.3 191.9 272.8 190.3L275.1 188.9L271.9 183.2C264 169.2 253.8 159.3 239.9 152C213.7 138.4 181 141.6 158.1 160.1C134 179.7 124.5 211.3 133.5 241.9C135.7 249.2 137.8 251 144.3 251C147.1 251 153.1 250.1 157.6 249Z" fill="white"/>
</svg>
